<svg width="47" height="23" viewBox="0 0 47 23" fill="none" xmlns="http://www.w3.org/2000/svg">
<path d="M35.7427 11.2828C35.8989 11.1266 35.8989 10.8734 35.7427 10.7172L33.1971 8.17157C33.0409 8.01536 32.7877 8.01536 32.6314 8.17157C32.4752 8.32778 32.4752 8.58105 32.6314 8.73726L34.8942 11L32.6314 13.2627C32.4752 13.419 32.4752 13.6722 32.6314 13.8284C32.7877 13.9846 33.0409 13.9846 33.1971 13.8284L35.7427 11.2828ZM0.173828 11.4H35.4599V10.6H0.173828V11.4Z" fill="black"/>
<path d="M45.667 11.0526C45.667 16.9368 40.9083 21.7053 35.0401 21.7053C29.1719 21.7053 24.4132 16.9368 24.4132 11.0526C24.4132 5.16847 29.1719 0.4 35.0401 0.4C40.9083 0.4 45.667 5.16847 45.667 11.0526Z" stroke="black" stroke-width="0.8"/>
</svg>
