<svg width="41" height="41" viewBox="0 0 41 41" fill="none" xmlns="http://www.w3.org/2000/svg">
<path d="M20.6662 3.43201C11.4132 3.43201 3.84253 10.9859 3.84253 20.2894C3.84253 28.7013 10 35.6831 18.0417 36.9449V25.1683H13.7685V20.2894H18.0417V16.5713C18.0417 12.3486 20.5485 10.0269 24.4011 10.0269C26.2349 10.0269 28.1528 10.3466 28.1528 10.3466V14.502H26.033C23.9469 14.502 23.2907 15.7974 23.2907 17.1265V20.2894H27.9677L27.2107 25.1683H23.2907V36.9449C27.2551 36.3187 30.8651 34.296 33.4689 31.2416C36.0727 28.1875 37.499 24.3029 37.49 20.2894C37.49 10.9859 29.9193 3.43201 20.6662 3.43201Z" fill="black"/>
</svg>
