<svg width="35" height="34" viewBox="0 0 35 34" fill="none" xmlns="http://www.w3.org/2000/svg">
<path d="M17.6662 0.432007C8.4132 0.432007 0.842529 7.98586 0.842529 17.2894C0.842529 25.7013 7.00001 32.6831 15.0417 33.9449V22.1683H10.7685V17.2894H15.0417V13.5713C15.0417 9.34858 17.5485 7.0269 21.4011 7.0269C23.2349 7.0269 25.1528 7.34656 25.1528 7.34656V11.502H23.033C20.9469 11.502 20.2907 12.7974 20.2907 14.1265V17.2894H24.9677L24.2107 22.1683H20.2907V33.9449C24.2551 33.3187 27.8651 31.296 30.4689 28.2416C33.0727 25.1875 34.499 21.3029 34.49 17.2894C34.49 7.98586 26.9193 0.432007 17.6662 0.432007Z" fill="black"/>
</svg>
