<svg width="47" height="23" viewBox="0 0 47 23" fill="none" xmlns="http://www.w3.org/2000/svg">
<path d="M36.0421 11.2828C36.1983 11.1266 36.1983 10.8734 36.0421 10.7172L33.4965 8.17157C33.3403 8.01536 33.087 8.01536 32.9308 8.17157C32.7746 8.32778 32.7746 8.58105 32.9308 8.73726L35.1936 11L32.9308 13.2627C32.7746 13.419 32.7746 13.6722 32.9308 13.8284C33.087 13.9846 33.3403 13.9846 33.4965 13.8284L36.0421 11.2828ZM0.201172 11.4H35.7592V10.6H0.201172V11.4Z" fill="white"/>
<path d="M46.0477 11.0526C46.0477 16.9339 41.2538 21.7053 35.3358 21.7053C29.4177 21.7053 24.6239 16.9339 24.6239 11.0526C24.6239 5.17136 29.4177 0.4 35.3358 0.4C41.2538 0.4 46.0477 5.17136 46.0477 11.0526Z" stroke="white" stroke-width="0.8"/>
</svg>
