<svg width="34" height="35" viewBox="0 0 34 35" fill="none" xmlns="http://www.w3.org/2000/svg">
<path d="M16.5433 34.0683C25.6799 34.0683 33.0866 26.6616 33.0866 17.525C33.0866 8.38839 25.6799 0.981689 16.5433 0.981689C7.4067 0.981689 0 8.38839 0 17.525C0 26.6616 7.4067 34.0683 16.5433 34.0683Z" fill="#1A1A1A"/>
<path d="M16.5434 9.3875C19.1937 9.3875 19.5077 9.39759 20.5544 9.44532C21.5221 9.48949 22.0477 9.6512 22.3975 9.7871C22.8608 9.96718 23.1914 10.1822 23.5388 10.5296C23.8862 10.877 24.1012 11.2076 24.2813 11.6709C24.4172 12.0207 24.5789 12.5463 24.6231 13.514C24.6708 14.5607 24.6809 14.8746 24.6809 17.5249C24.6809 20.1753 24.6708 20.4892 24.6231 21.5359C24.5789 22.5037 24.4172 23.0292 24.2813 23.379C24.1012 23.8423 23.8862 24.173 23.5389 24.5203C23.1914 24.8677 22.8608 25.0827 22.3975 25.2628C22.0477 25.3988 21.5221 25.5604 20.5544 25.6046C19.5079 25.6523 19.194 25.6625 16.5434 25.6625C13.8929 25.6625 13.579 25.6523 12.5325 25.6046C11.5647 25.5604 11.0391 25.3988 10.6893 25.2628C10.226 25.0827 9.89541 24.8677 9.54808 24.5203C9.20075 24.173 8.98561 23.8423 8.80553 23.379C8.66963 23.0292 8.50792 22.5037 8.46375 21.5359C8.41602 20.4892 8.40593 20.1753 8.40593 17.5249C8.40593 14.8746 8.41602 14.5607 8.46375 13.514C8.50792 12.5463 8.66963 12.0207 8.80553 11.6709C8.98561 11.2076 9.20067 10.877 9.54808 10.5296C9.89541 10.1822 10.226 9.96718 10.6893 9.7871C11.0391 9.6512 11.5647 9.48949 12.5325 9.44532C13.5791 9.39759 13.8931 9.3875 16.5434 9.3875ZM16.5434 7.599C13.8477 7.599 13.5096 7.61041 12.4509 7.65872C11.3945 7.70694 10.6729 7.87469 10.0415 8.12011C9.38877 8.37372 8.83523 8.71311 8.28343 9.26499C7.73154 9.8168 7.39216 10.3703 7.13855 11.0231C6.89313 11.6544 6.72538 12.376 6.67715 13.4325C6.62885 14.4912 6.61743 14.8293 6.61743 17.5249C6.61743 20.2207 6.62885 20.5587 6.67715 21.6174C6.72538 22.6739 6.89313 23.3955 7.13855 24.0268C7.39216 24.6796 7.73154 25.2331 8.28343 25.785C8.83523 26.3368 9.38877 26.6762 10.0415 26.9298C10.6729 27.1752 11.3945 27.343 12.4509 27.3912C13.5096 27.4395 13.8477 27.4509 16.5434 27.4509C19.2392 27.4509 19.5772 27.4395 20.6359 27.3912C21.6924 27.343 22.414 27.1752 23.0454 26.9298C23.6981 26.6762 24.2516 26.3368 24.8034 25.785C25.3552 25.2331 25.6947 24.6796 25.9483 24.0268C26.1937 23.3955 26.3615 22.6739 26.4097 21.6174C26.458 20.5587 26.4694 20.2207 26.4694 17.5249C26.4694 14.8293 26.458 14.4912 26.4097 13.4325C26.3615 12.376 26.1937 11.6544 25.9483 11.0231C25.6947 10.3703 25.3552 9.8168 24.8034 9.26499C24.2516 8.71311 23.6981 8.37372 23.0454 8.12011C22.414 7.87469 21.6924 7.70694 20.6359 7.65872C19.5772 7.61041 19.2392 7.599 16.5434 7.599Z" fill="white"/>
<path d="M16.548 12.4324C13.7329 12.4324 11.4509 14.7144 11.4509 17.5295C11.4509 20.3445 13.7329 22.6265 16.548 22.6265C19.3631 22.6265 21.6452 20.3445 21.6452 17.5295C21.6452 14.7144 19.3631 12.4324 16.548 12.4324ZM16.548 20.8381C14.7207 20.8381 13.2393 19.3567 13.2393 17.5295C13.2393 15.7022 14.7207 14.2208 16.548 14.2208C18.3754 14.2208 19.8567 15.7022 19.8567 17.5295C19.8567 19.3567 18.3754 20.8381 16.548 20.8381Z" fill="white"/>
<path d="M23.037 12.2281C23.037 12.8858 22.5037 13.4192 21.8459 13.4192C21.1881 13.4192 20.6548 12.8858 20.6548 12.2281C20.6548 11.5702 21.1881 11.0369 21.8459 11.0369C22.5037 11.0369 23.037 11.5702 23.037 12.2281Z" fill="white"/>
</svg>
