<svg width="34" height="34" viewBox="0 0 34 34" fill="none" xmlns="http://www.w3.org/2000/svg">
<g clip-path="url(#clip0_457_177)">
<path d="M16.79 0.0375977C7.68335 0.0375977 0.302734 7.41821 0.302734 16.5248C0.302734 25.6315 7.68335 33.0121 16.79 33.0121C25.8966 33.0121 33.2772 25.6315 33.2772 16.5248C33.2772 7.41821 25.8966 0.0375977 16.79 0.0375977ZM12.1787 23.4224H8.96498V13.1372H12.1787V23.4224ZM10.4849 11.8492H10.4591C9.29343 11.8492 8.53992 11.0634 8.53992 10.0652C8.53992 9.04762 9.31919 8.28122 10.5042 8.28122C11.6892 8.28122 12.417 9.04762 12.4428 10.0652C12.4492 11.057 11.6957 11.8492 10.4849 11.8492ZM25.0336 23.4224H21.3884V18.1027C21.3884 16.7116 20.8216 15.7584 19.5658 15.7584C18.6061 15.7584 18.0716 16.4025 17.8269 17.0207C17.7367 17.2397 17.7496 17.5489 17.7496 17.8644V23.4224H14.1366C14.1366 23.4224 14.1816 13.9938 14.1366 13.1372H17.7496V14.7537C17.9621 14.0453 19.1149 13.0406 20.9569 13.0406C23.2432 13.0406 25.0336 14.5219 25.0336 17.7034V23.4224Z" fill="black"/>
</g>
<defs>
<clipPath id="clip0_457_177">
<rect width="32.9745" height="32.9745" fill="white" transform="translate(0.302734 0.0375977)"/>
</clipPath>
</defs>
</svg>
