<svg width="34" height="34" viewBox="0 0 34 34" fill="none" xmlns="http://www.w3.org/2000/svg">
<g clip-path="url(#clip0_457_170)">
<path fill-rule="evenodd" clip-rule="evenodd" d="M17.1546 0.0375977C8.12458 0.0375977 0.871826 7.34911 0.871826 16.4564C0.871826 23.2162 4.84031 28.8728 10.5878 31.4946C10.5878 28.4156 10.5663 28.8124 12.9124 18.8007C11.6231 16.1988 12.6256 11.9031 15.5125 11.9031C19.5189 11.9031 16.7969 17.843 16.3336 20.1805C15.923 21.9744 17.2915 23.3548 18.9336 23.3548C22.081 23.3548 24.132 19.3528 24.132 14.6628C24.132 11.075 21.6705 8.4535 17.4283 8.4535C9.88541 8.4535 7.97289 16.8539 10.5878 19.4906C11.2456 20.4865 10.5878 20.5331 10.5878 21.8365C10.1311 23.2147 6.48243 21.2114 6.48243 16.0426C6.48243 11.351 10.3141 5.83309 18.1125 5.83309C24.2689 5.83309 28.3742 10.3854 28.3742 15.215C28.3742 21.6989 24.8162 26.3906 19.6178 26.3906C17.8388 26.3906 16.1967 25.424 15.6493 24.3201C14.6552 28.1871 14.454 30.1476 12.9124 32.3222C14.4177 32.7361 15.923 33.0121 17.5652 33.0121C26.5952 33.0121 33.8463 25.7005 33.8463 16.5949C33.4374 7.34959 26.1847 0.0375977 17.1546 0.0375977Z" fill="black"/>
</g>
<defs>
<clipPath id="clip0_457_170">
<rect width="32.9745" height="32.9745" fill="white" transform="translate(0.871826 0.0375977)"/>
</clipPath>
</defs>
</svg>
