<svg width="34" height="34" viewBox="0 0 34 34" fill="none" xmlns="http://www.w3.org/2000/svg">
<g clip-path="url(#clip0_457_161)">
<path d="M15.1987 19.7L20.5957 16.5313L15.1987 13.3627V19.7Z" fill="black"/>
<path d="M17.395 0.0375977C8.28833 0.0375977 0.907715 7.41821 0.907715 16.5248C0.907715 25.6315 8.28833 33.0121 17.395 33.0121C26.5016 33.0121 33.8822 25.6315 33.8822 16.5248C33.8822 7.41821 26.5016 0.0375977 17.395 0.0375977ZM25.6386 19.4745C25.6386 22.3147 22.7984 22.3147 22.7984 22.3147H11.9915C9.15134 22.3147 9.15134 19.4745 9.15134 19.4745V13.5816C9.15134 10.7414 11.9915 10.7414 11.9915 10.7414H22.7984C25.6386 10.7414 25.6386 13.5816 25.6386 13.5816V19.4745Z" fill="black"/>
</g>
<defs>
<clipPath id="clip0_457_161">
<rect width="32.9745" height="32.9745" fill="white" transform="translate(0.907715 0.0375977)"/>
</clipPath>
</defs>
</svg>
