<svg width="47" height="23" viewBox="0 0 47 23" fill="none" xmlns="http://www.w3.org/2000/svg">
<path d="M35.7427 11.2828C35.8989 11.1266 35.8989 10.8734 35.7427 10.7172L33.1971 8.17157C33.0409 8.01536 32.7877 8.01536 32.6314 8.17157C32.4752 8.32778 32.4752 8.58105 32.6314 8.73726L34.8942 11L32.6314 13.2627C32.4752 13.419 32.4752 13.6722 32.6314 13.8284C32.7877 13.9846 33.0409 13.9846 33.1971 13.8284L35.7427 11.2828ZM0.173828 11.4H35.4599V10.6H0.173828V11.4Z" fill="white"/>
<path d="M45.6667 11.0526C45.6667 16.9368 40.908 21.7053 35.0398 21.7053C29.1716 21.7053 24.4129 16.9368 24.4129 11.0526C24.4129 5.16847 29.1716 0.4 35.0398 0.4C40.908 0.4 45.6667 5.16847 45.6667 11.0526Z" stroke="white" stroke-width="0.8"/>
</svg>
